<?xml version="1.0" standalone="no"?>
<!DOCTYPE svg PUBLIC "-//W3C//DTD SVG 20010904//EN"
 "http://www.w3.org/TR/2001/REC-SVG-20010904/DTD/svg10.dtd">
<svg version="1.0" xmlns="http://www.w3.org/2000/svg"
 width="96.000000pt" height="96.000000pt" viewBox="0 0 96.000000 96.000000"
 preserveAspectRatio="xMidYMid meet">

<g transform="translate(0.000000,96.000000) scale(0.100000,-0.100000)"
fill="#000000" stroke="none">
<path d="M44 825 c-12 -31 4 -45 51 -45 38 0 47 -4 55 -22 5 -13 25 -105 44
-204 19 -100 41 -195 50 -211 29 -56 60 -63 296 -63 236 0 267 7 296 63 19 35
88 383 80 403 -4 12 -66 14 -355 14 l-349 0 -6 25 c-3 13 -20 31 -36 40 -39
20 -119 20 -126 0z m806 -137 c0 -7 -13 -80 -29 -163 -24 -121 -33 -153 -51
-167 -20 -16 -46 -18 -230 -18 -184 0 -210 2 -230 18 -18 14 -27 46 -51 167
-16 83 -29 156 -29 163 0 9 69 12 310 12 241 0 310 -3 310 -12z"/>
<path d="M360 220 c-11 -11 -20 -29 -20 -40 0 -26 34 -60 60 -60 26 0 60 34
60 60 0 11 -9 29 -20 40 -11 11 -29 20 -40 20 -11 0 -29 -9 -40 -20z"/>
<path d="M640 220 c-11 -11 -20 -29 -20 -40 0 -26 34 -60 60 -60 26 0 60 34
60 60 0 11 -9 29 -20 40 -11 11 -29 20 -40 20 -11 0 -29 -9 -40 -20z"/>
</g>
</svg>
