<?xml version="1.0" standalone="no"?>
<!DOCTYPE svg PUBLIC "-//W3C//DTD SVG 20010904//EN"
 "http://www.w3.org/TR/2001/REC-SVG-20010904/DTD/svg10.dtd">
<svg version="1.0" xmlns="http://www.w3.org/2000/svg"
 width="96.000000pt" height="96.000000pt" viewBox="0 0 96.000000 96.000000"
 preserveAspectRatio="xMidYMid meet">

<g transform="translate(0.000000,96.000000) scale(0.100000,-0.100000)"
fill="#000000" stroke="none">
<path d="M236 830 c-74 -23 -140 -99 -152 -176 -19 -128 70 -260 330 -488 l66
-58 67 58 c199 174 300 297 323 394 36 148 -69 281 -220 280 -41 0 -115 -32
-147 -62 l-23 -21 -22 21 c-55 51 -150 73 -222 52z m119 -80 c14 -5 48 -31 75
-56 l50 -47 50 47 c54 51 85 66 133 66 68 0 137 -71 137 -140 0 -46 -38 -123
-92 -187 -47 -57 -215 -213 -228 -213 -5 0 -48 36 -95 80 -202 187 -260 297
-205 388 37 61 110 87 175 62z"/>
</g>
</svg>
