<?xml version="1.0" standalone="no"?>
<!DOCTYPE svg PUBLIC "-//W3C//DTD SVG 20010904//EN"
 "http://www.w3.org/TR/2001/REC-SVG-20010904/DTD/svg10.dtd">
<svg version="1.0" xmlns="http://www.w3.org/2000/svg"
 width="512.000000pt" height="512.000000pt" viewBox="0 0 512.000000 512.000000"
 preserveAspectRatio="xMidYMid meet">

<g transform="translate(0.000000,512.000000) scale(0.100000,-0.100000)"
fill="#000000" stroke="none">
<path d="M955 4255 c-144 -27 -274 -100 -369 -207 -55 -61 -129 -209 -145
-286 -8 -36 -11 -417 -11 -1205 0 -1283 -4 -1202 70 -1352 89 -181 255 -304
460 -341 111 -20 3089 -20 3200 0 205 37 371 160 460 341 74 150 70 69 70
1355 0 1286 4 1205 -70 1355 -89 181 -255 304 -460 341 -108 19 -3100 19
-3205 -1z m3196 -443 c60 -31 106 -93 111 -151 l3 -35 -850 -519 -850 -518
-30 15 c-16 8 -401 241 -855 519 l-825 504 3 34 c5 58 51 120 111 151 l53 28
1538 0 1538 0 53 -28z m-2471 -1177 c421 -257 779 -474 797 -481 42 -18 115
-18 158 0 18 8 390 231 827 496 436 265 796 484 801 487 4 2 6 -380 5 -850
l-3 -854 -30 -48 c-22 -36 -45 -57 -84 -77 l-53 -28 -1538 0 -1538 0 -53 28
c-39 20 -62 41 -84 77 l-30 48 -3 855 -3 854 33 -20 c18 -11 377 -230 798
-487z"/>
</g>
</svg>
