<?xml version="1.0" standalone="no"?>
<!DOCTYPE svg PUBLIC "-//W3C//DTD SVG 20010904//EN"
 "http://www.w3.org/TR/2001/REC-SVG-20010904/DTD/svg10.dtd">
<svg version="1.0" xmlns="http://www.w3.org/2000/svg"
 width="512.000000pt" height="512.000000pt" viewBox="0 0 512.000000 512.000000"
 preserveAspectRatio="xMidYMid meet">

<g transform="translate(0.000000,512.000000) scale(0.100000,-0.100000)"
fill="#000000" stroke="none">
<path d="M2460 4830 c-708 -65 -1188 -759 -994 -1440 29 -101 96 -245 155
-332 69 -101 204 -233 311 -305 459 -305 1058 -242 1438 153 102 106 156 182
215 307 245 512 75 1116 -403 1435 -142 94 -331 163 -487 177 -122 11 -152 12
-235 5z m310 -305 c95 -25 236 -95 319 -161 133 -104 244 -271 293 -441 20
-67 23 -101 23 -233 -1 -147 -3 -160 -33 -250 -120 -358 -440 -592 -812 -592
-372 0 -693 234 -812 592 -30 90 -32 103 -32 250 -1 184 10 237 83 385 119
241 331 403 601 461 84 17 282 12 370 -11z"/>
<path d="M2340 2280 c-331 -37 -686 -162 -945 -336 -310 -207 -536 -470 -681
-792 -103 -228 -98 -423 16 -597 78 -119 191 -206 325 -248 l70 -22 1435 0
1435 0 70 22 c244 78 414 305 415 554 0 90 -29 197 -88 321 -92 194 -190 334
-346 496 -300 310 -710 517 -1161 587 -121 19 -428 27 -545 15z m425 -300
c623 -72 1157 -441 1412 -976 33 -69 38 -88 38 -149 -1 -85 -31 -150 -97 -212
-86 -79 29 -74 -1563 -71 l-1420 3 -41 22 c-57 31 -125 110 -148 172 -30 84
-20 145 46 283 129 269 334 497 598 666 200 127 500 232 753 261 104 12 318
12 422 1z"/>
</g>
</svg>
